# xmcd
#
# Track frame offsets:
#	150
#	20111
#	40351
#	57789
#	79241
#
# Disc length: 1320 seconds
# Revision: 0
# Processed by: cddbd v1.5.2PL0 Copyright (c) Steve Scherf et al.
# Submitted via: dBpowerAMP V12.0
#
DISCID=3c052605
DTITLE=Various Artist - 明日がくるなら JUJU with JAY'ED
DYEAR=2009
DGENRE=J-POP
TTITLE0=JUJU with JAY'ED - 明日がくるなら
TTITLE1=JUJU - 明日がくるなら ballad solo version
TTITLE2=JUJU - The Rose
TTITLE3=JUJU Feat. Spontania - 素直になれたら RYLL 90's flava remix
TTITLE4=JUJU with JAY'ED - 明日がくるなら original duet version -instrumental-
EXTD=
EXTT0=
EXTT1=
EXTT2=
EXTT3=
EXTT4=
PLAYORDER=
